<?xml version="1.0" encoding="UTF-8" standalone="no"?>
<!DOCTYPE svg PUBLIC "-//W3C//DTD SVG 1.1//EN" "http://www.w3.org/Graphics/SVG/1.1/DTD/svg11.dtd">
<svg version="1.1" xmlns="http://www.w3.org/2000/svg" xmlns:xlink="http://www.w3.org/1999/xlink" preserveAspectRatio="xMidYMid meet" viewBox="0 0 654 422" width="654" height="422"><defs><path d="M338.47 330.45L339.16 330.46L339.86 330.48L340.55 330.51L341.24 330.54L341.92 330.59L342.6 330.63L343.27 330.69L343.93 330.75L344.59 330.82L345.23 330.9L345.85 330.98L346.47 331.07L347.07 331.16L347.65 331.26L348.22 331.37L348.76 331.49L349.29 331.61L349.8 331.74L350.28 331.87L351.22 332.17L352.15 332.5L353.07 332.85L353.98 333.23L354.89 333.63L355.78 334.06L356.67 334.51L357.54 334.99L358.41 335.49L359.26 336.02L360.1 336.57L360.93 337.14L361.75 337.73L362.55 338.34L363.34 338.98L364.12 339.64L364.88 340.31L365.63 341.01L366.36 341.72L367.08 342.46L367.78 343.21L368.46 343.98L369.13 344.77L369.78 345.57L370.41 346.39L371.02 347.23L371.62 348.08L372.19 348.95L372.75 349.83L373.29 350.72L373.8 351.63L374.3 352.55L374.77 353.49L375.22 354.44L375.65 355.4L376.06 356.37L376.45 357.35L376.81 358.34L377.14 359.34L377.46 360.35L377.65 361.04L377.83 361.76L377.99 362.5L378.15 363.27L378.3 364.05L378.44 364.85L378.56 365.67L378.68 366.51L378.78 367.36L378.88 368.22L378.96 369.09L379.04 369.98L379.1 370.87L379.15 371.77L379.19 372.68L379.22 373.59L379.25 374.5L379.26 375.42L379.26 376.34L379.24 377.25L379.22 378.17L379.19 379.08L379.15 379.99L379.09 380.88L379.03 381.78L378.96 382.66L378.87 383.53L378.78 384.39L378.67 385.24L378.55 386.07L378.43 386.88L378.29 387.68L378.14 388.46L377.98 389.22L377.81 389.96L377.63 390.67L377.44 391.36L377.24 392.02L377.03 392.66L376.81 393.27L376.26 394.68L375.68 396.06L375.07 397.4L374.44 398.71L373.77 399.98L373.08 401.21L372.36 402.42L371.62 403.58L370.85 404.71L370.05 405.8L369.22 406.86L368.37 407.88L367.49 408.86L366.59 409.81L365.66 410.72L364.71 411.59L363.73 412.43L362.73 413.22L361.7 413.98L360.65 414.71L359.57 415.39L358.47 416.03L357.35 416.64L356.2 417.21L355.03 417.74L353.84 418.23L352.63 418.68L351.39 419.09L350.13 419.46L348.85 419.79L347.55 420.08L346.23 420.33L344.88 420.55L343.52 420.72L342.13 420.85L340.73 420.93L339.3 420.98L337.85 420.99L336.39 420.95L334.9 420.88L333.17 420.74L331.48 420.55L329.81 420.29L328.18 419.98L326.58 419.61L325.01 419.18L323.48 418.7L321.99 418.16L320.53 417.57L319.11 416.92L317.73 416.22L316.38 415.46L315.08 414.66L313.81 413.8L312.58 412.9L311.39 411.94L310.25 410.94L309.14 409.89L308.08 408.79L307.06 407.64L306.09 406.45L305.16 405.21L304.27 403.93L303.43 402.6L302.64 401.23L301.89 399.82L301.19 398.37L300.54 396.88L299.93 395.35L299.38 393.77L298.88 392.16L298.42 390.51L298.02 388.83L297.67 387.11L297.37 385.35L297.12 383.56L296.93 381.73L296.79 379.87L296.71 377.98L296.68 376.05L296.7 374.4L296.76 372.77L296.86 371.16L296.99 369.59L297.17 368.03L297.38 366.5L297.63 365L297.92 363.52L298.25 362.07L298.62 360.65L299.02 359.25L299.46 357.88L299.93 356.54L300.44 355.23L300.99 353.94L301.58 352.68L302.2 351.45L302.86 350.25L303.55 349.08L304.28 347.94L305.04 346.83L305.84 345.74L306.67 344.69L307.53 343.67L308.44 342.68L309.37 341.73L310.34 340.8L311.34 339.9L312.38 339.04L313.45 338.21L314.55 337.41L315.68 336.65L316.85 335.92L318.05 335.22L319.28 334.56L320.55 333.93L321.84 333.34L323.17 332.78L324.53 332.25L325.92 331.76L326.34 331.63L326.78 331.5L327.25 331.38L327.75 331.27L328.26 331.16L328.8 331.07L329.35 330.98L329.93 330.89L330.52 330.82L331.12 330.75L331.75 330.68L332.38 330.63L333.03 330.58L333.68 330.54L334.35 330.5L335.02 330.48L335.7 330.46L336.39 330.44L337.08 330.44L337.77 330.44L338.47 330.45ZM647.29 418.82L640.47 418.5L640.25 387.64L640.23 386.37L640.22 385.11L640.2 383.86L640.19 382.62L640.17 381.4L640.16 380.19L640.14 379L640.13 377.82L640.12 376.67L640.11 375.53L640.09 374.41L640.08 373.31L640.07 372.24L640.06 371.18L640.05 370.16L640.04 369.15L640.03 368.18L640.02 367.23L640.01 366.3L640.01 365.41L640 364.55L639.99 363.72L639.98 362.92L639.98 362.16L639.97 361.43L639.96 360.74L639.96 360.08L639.95 359.46L639.95 358.88L639.94 358.34L639.94 357.84L639.94 357.38L639.93 356.97L639.93 356.6L639.93 356.28L639.93 356L639.93 355.77L639.92 355.58L639.92 355.45L639.92 355.37L639.92 355.2L639.91 355.05L639.89 354.91L639.87 354.78L639.84 354.66L639.81 354.55L639.77 354.46L639.73 354.37L639.68 354.29L639.63 354.23L639.57 354.17L639.51 354.13L639.44 354.09L639.38 354.07L639.31 354.06L639.23 354.05L639.16 354.05L639.08 354.07L639 354.09L638.92 354.12L638.84 354.16L638.76 354.21L638.67 354.27L638.59 354.34L638.51 354.42L638.42 354.5L638.34 354.59L638.26 354.69L638.18 354.8L638.1 354.91L638.02 355.03L637.94 355.16L637.87 355.3L637.8 355.45L637.73 355.6L637.66 355.75L637.6 355.92L637.54 356.09L637.48 356.27L637.43 356.45L637.41 356.57L637.37 356.7L637.33 356.84L637.29 357.01L637.24 357.18L637.18 357.38L637.12 357.58L637.05 357.81L636.98 358.04L636.91 358.29L636.82 358.55L636.74 358.82L636.65 359.11L636.55 359.41L636.45 359.71L636.35 360.03L636.24 360.36L636.13 360.7L636.01 361.05L635.89 361.41L635.77 361.77L635.64 362.14L635.51 362.53L635.38 362.91L635.24 363.31L635.1 363.71L634.96 364.12L634.81 364.53L634.66 364.95L634.51 365.37L634.36 365.8L634.2 366.23L634.04 366.67L633.88 367.11L633.72 367.55L633.56 367.99L633.39 368.43L633.22 368.88L633.06 369.32L632.89 369.77L632.72 370.22L632.56 370.66L632.4 371.11L632.23 371.56L632.07 372L631.91 372.44L631.75 372.88L631.59 373.32L631.43 373.75L631.27 374.18L631.12 374.61L630.96 375.03L630.81 375.45L630.66 375.86L630.51 376.27L630.36 376.67L630.22 377.06L630.07 377.45L629.94 377.83L629.8 378.2L629.67 378.57L629.54 378.92L629.41 379.27L629.29 379.6L629.17 379.93L629.06 380.24L628.95 380.55L628.85 380.84L628.75 381.12L628.65 381.39L628.56 381.64L628.48 381.89L628.4 382.12L628.33 382.33L628.26 382.53L628.2 382.72L628.14 382.89L628.09 383.04L628.05 383.18L628.01 383.3L627.92 383.57L627.86 383.72L627.8 383.89L627.74 384.08L627.67 384.28L627.59 384.49L627.51 384.72L627.42 384.97L627.33 385.22L627.23 385.49L627.13 385.77L627.03 386.06L626.92 386.37L626.8 386.68L626.69 387.01L626.57 387.34L626.44 387.69L626.32 388.04L626.19 388.41L626.05 388.78L625.92 389.16L625.78 389.55L625.64 389.94L625.49 390.34L625.34 390.75L625.2 391.16L625.05 391.58L624.89 392L624.74 392.43L624.58 392.86L624.43 393.29L624.27 393.73L624.11 394.17L623.95 394.61L623.79 395.05L623.63 395.5L623.47 395.95L623.3 396.39L622.98 397.29L622.81 397.74L622.65 398.2L622.48 398.66L622.31 399.12L622.14 399.59L621.97 400.06L621.81 400.52L621.64 400.99L621.47 401.46L621.3 401.93L621.13 402.4L620.96 402.87L620.79 403.33L620.62 403.8L620.46 404.26L620.29 404.71L620.13 405.17L619.97 405.61L619.81 406.06L619.65 406.49L619.5 406.93L619.35 407.35L619.2 407.77L619.05 408.18L618.9 408.58L618.76 408.98L618.62 409.36L618.49 409.74L618.36 410.1L618.23 410.46L618.11 410.8L617.99 411.13L617.88 411.45L617.77 411.76L617.66 412.05L617.56 412.33L617.47 412.6L617.38 412.85L617.29 413.08L615.45 418.5L609.61 418.82L609.37 418.84L609.14 418.85L608.9 418.86L608.67 418.87L608.44 418.88L608.21 418.89L607.99 418.89L607.77 418.9L607.54 418.9L607.33 418.9L607.11 418.9L606.9 418.9L606.69 418.9L606.48 418.89L606.28 418.89L606.08 418.88L605.89 418.87L605.7 418.86L605.51 418.85L605.33 418.83L605.15 418.82L604.98 418.8L604.82 418.78L604.66 418.77L604.5 418.74L604.35 418.72L604.21 418.7L604.07 418.68L603.94 418.65L603.82 418.62L603.7 418.59L603.59 418.56L603.49 418.53L603.4 418.5L603.31 418.47L603.23 418.43L603.16 418.39L603.1 418.36L603.05 418.32L603 418.28L602.96 418.23L602.92 418.17L602.87 418.08L602.81 417.96L602.74 417.83L602.66 417.67L602.58 417.49L602.49 417.3L602.39 417.08L602.29 416.84L602.18 416.59L602.06 416.31L601.94 416.02L601.81 415.71L601.67 415.39L601.54 415.05L601.39 414.69L601.24 414.32L601.09 413.93L600.93 413.53L600.77 413.11L600.6 412.69L600.43 412.24L600.26 411.79L600.08 411.33L599.9 410.85L599.72 410.37L599.53 409.87L599.34 409.37L599.15 408.85L598.96 408.33L598.76 407.8L598.56 407.26L598.36 406.72L598.16 406.17L597.96 405.61L597.76 405.05L597.56 404.48L597.36 403.91L597.15 403.34L596.64 401.89L596.12 400.43L595.6 398.96L595.07 397.48L594.54 396L594 394.51L593.47 393.01L592.93 391.52L592.4 390.02L591.87 388.53L591.34 387.05L590.81 385.58L590.28 384.11L589.76 382.66L589.25 381.22L588.74 379.8L588.23 378.4L587.74 377.02L587.25 375.66L586.77 374.33L586.3 373.03L585.85 371.75L585.4 370.51L584.97 369.31L584.55 368.14L584.14 367L583.75 365.91L583.38 364.87L583.02 363.86L582.67 362.91L582.35 362L582.04 361.15L581.76 360.35L581.49 359.61L581.25 358.92L581.02 358.3L580.83 357.74L580.65 357.24L580.5 356.81L580.37 356.45L580.3 356.25L580.23 356.06L580.16 355.88L580.09 355.7L580.02 355.54L579.95 355.38L579.89 355.23L579.82 355.08L579.76 354.95L579.7 354.82L579.63 354.7L579.57 354.59L579.51 354.48L579.45 354.38L579.39 354.29L579.34 354.21L579.28 354.13L579.22 354.06L579.17 354L579.11 353.95L579.06 353.9L579 353.86L578.95 353.83L578.9 353.8L578.85 353.78L578.79 353.77L578.74 353.76L578.69 353.76L578.64 353.77L578.59 353.79L578.54 353.81L578.49 353.84L578.44 353.87L578.39 353.91L578.34 353.96L578.29 354.01L578.24 354.07L578.19 354.14L578.15 354.21L578.1 354.29L578.06 354.37L578.02 354.5L577.98 354.69L577.94 354.93L577.9 355.21L577.86 355.54L577.82 355.92L577.79 356.35L577.75 356.82L577.72 357.33L577.68 357.88L577.65 358.48L577.61 359.11L577.58 359.79L577.55 360.5L577.52 361.25L577.49 362.03L577.46 362.85L577.43 363.7L577.41 364.59L577.38 365.5L577.36 366.45L577.33 367.42L577.31 368.42L577.29 369.45L577.27 370.5L577.25 371.58L577.23 372.68L577.21 373.8L577.2 374.95L577.18 376.11L577.17 377.3L577.16 378.5L577.15 379.72L577.14 380.95L577.14 382.2L577.13 383.46L577.13 384.73L577.12 386.02L577.12 387.31L577.12 419.04L564.13 419.04L564.13 332.31L574.63 332.63L585.03 332.96L588.6 343.24L588.75 343.68L588.91 344.14L589.08 344.63L589.26 345.15L589.45 345.69L589.64 346.25L589.84 346.84L590.05 347.45L590.27 348.08L590.49 348.72L590.73 349.39L590.96 350.07L591.2 350.78L591.45 351.49L591.71 352.23L591.96 352.97L592.23 353.73L592.49 354.5L592.76 355.28L593.04 356.07L593.32 356.87L593.6 357.68L593.88 358.5L594.17 359.32L594.45 360.14L594.74 360.97L595.03 361.81L595.32 362.64L595.62 363.48L595.91 364.32L596.2 365.15L596.49 365.99L596.78 366.82L597.07 367.64L597.36 368.47L597.65 369.28L597.94 370.09L598.22 370.9L598.5 371.69L598.78 372.48L599.05 373.26L599.33 374.03L599.6 374.81L599.87 375.58L600.14 376.34L600.41 377.11L600.68 377.86L600.94 378.61L601.2 379.36L601.46 380.09L601.71 380.82L601.96 381.53L602.21 382.24L602.45 382.94L602.69 383.62L602.92 384.3L603.15 384.96L603.37 385.6L603.59 386.23L603.8 386.85L604.01 387.45L604.21 388.04L604.4 388.6L604.59 389.15L604.77 389.68L604.94 390.19L605.1 390.68L605.26 391.15L605.41 391.6L605.55 392.03L605.69 392.43L605.81 392.81L605.93 393.16L606.03 393.49L606.13 393.79L606.22 394.07L606.3 394.32L606.36 394.54L606.42 394.73L606.47 394.89L606.54 395.14L606.62 395.38L606.7 395.62L606.78 395.86L606.86 396.08L606.95 396.31L607.04 396.52L607.13 396.73L607.22 396.94L607.32 397.14L607.41 397.33L607.51 397.51L607.61 397.69L607.71 397.86L607.81 398.02L607.91 398.18L608.01 398.32L608.11 398.46L608.22 398.6L608.32 398.72L608.42 398.84L608.53 398.94L608.63 399.04L608.73 399.13L608.84 399.21L608.94 399.28L609.04 399.35L609.14 399.4L609.24 399.44L609.34 399.47L609.44 399.5L609.54 399.51L609.64 399.51L609.73 399.5L609.82 399.48L609.91 399.45L610 399.41L610.09 399.36L610.17 399.3L610.26 399.22L610.32 399.1L610.43 398.82L610.6 398.39L610.83 397.8L611.1 397.07L611.41 396.21L611.77 395.22L612.17 394.11L612.61 392.89L613.08 391.56L613.59 390.14L614.12 388.62L614.69 387.02L615.28 385.35L615.89 383.6L616.52 381.8L617.17 379.94L617.84 378.03L618.51 376.08L619.2 374.1L619.9 372.1L620.6 370.07L621.3 368.04L622 366L622.7 363.97L623.4 361.95L624.09 359.95L624.76 357.97L625.43 356.02L626.08 354.12L626.71 352.26L627.32 350.46L627.9 348.72L628.47 347.06L629 345.46L629.5 343.96L629.97 342.54L630.4 341.22L630.8 340.01L631.15 338.91L633.1 332.96L643.61 332.63L654 332.31L654 419.14L647.29 418.82ZM456.72 418.82L448.81 418.5L439.07 403.01L438.66 402.36L438.25 401.69L437.82 401L437.38 400.29L436.93 399.57L436.47 398.83L436 398.08L435.52 397.31L435.04 396.54L434.55 395.75L434.05 394.95L433.54 394.14L433.03 393.32L432.52 392.5L432 391.67L431.47 390.83L430.95 389.99L430.42 389.15L429.89 388.31L429.36 387.46L428.83 386.61L428.3 385.77L427.78 384.92L427.25 384.08L426.72 383.25L426.2 382.41L425.69 381.59L425.17 380.77L424.66 379.95L424.16 379.15L423.66 378.36L423.17 377.58L422.69 376.8L422.22 376.05L421.75 375.3L421.3 374.57L420.85 373.86L420.41 373.16L419.99 372.49L419.58 371.83L419.18 371.19L418.79 370.56L418.39 369.93L418.01 369.31L417.62 368.7L417.24 368.1L416.86 367.51L416.49 366.92L416.12 366.35L415.76 365.78L415.4 365.23L415.05 364.69L414.71 364.16L414.37 363.64L414.04 363.13L413.71 362.64L413.4 362.17L413.09 361.7L412.79 361.26L412.5 360.82L412.22 360.41L411.95 360.01L411.68 359.62L411.43 359.26L411.19 358.91L410.96 358.58L410.74 358.28L410.53 357.99L410.34 357.72L410.15 357.47L409.98 357.24L409.82 357.04L409.68 356.85L409.55 356.69L409.43 356.55L409.33 356.44L409.24 356.35L409.17 356.29L409.12 356.25L409.07 356.24L409.04 356.26L409.01 356.34L408.98 356.47L408.94 356.64L408.91 356.87L408.87 357.14L408.84 357.46L408.81 357.82L408.77 358.23L408.74 358.68L408.7 359.18L408.67 359.71L408.64 360.29L408.6 360.9L408.57 361.56L408.54 362.25L408.51 362.97L408.47 363.73L408.44 364.53L408.41 365.36L408.38 366.22L408.35 367.11L408.32 368.03L408.3 368.98L408.27 369.96L408.24 370.97L408.22 372L408.19 373.05L408.17 374.13L408.15 375.24L408.12 376.36L408.1 377.51L408.09 378.68L408.07 379.86L408.05 381.06L408.04 382.28L408.02 383.52L408.01 384.77L408 386.03L407.99 387.31L407.67 418.5L394.67 418.5L394.35 375.4L394.13 332.41L402.25 332.41L402.79 332.41L403.29 332.42L403.78 332.42L404.24 332.42L404.69 332.43L405.11 332.43L405.51 332.44L405.89 332.45L406.26 332.47L406.6 332.48L406.93 332.5L407.24 332.52L407.53 332.54L407.81 332.57L408.07 332.6L408.32 332.63L408.56 332.66L408.78 332.7L408.99 332.75L409.18 332.79L409.37 332.84L409.54 332.9L409.71 332.96L409.86 333.02L410.01 333.09L410.15 333.16L410.28 333.24L410.4 333.33L410.52 333.42L410.63 333.51L410.73 333.61L410.84 333.72L410.93 333.83L411.03 333.95L411.12 334.07L411.21 334.2L411.3 334.34L411.39 334.49L411.48 334.64L411.57 334.8L411.68 335.02L411.85 335.32L412.07 335.71L412.34 336.17L412.65 336.71L413.01 337.32L413.42 338L413.87 338.75L414.36 339.57L414.9 340.46L415.47 341.4L416.08 342.41L416.73 343.47L417.41 344.59L418.12 345.76L418.87 346.98L419.65 348.24L420.45 349.56L421.29 350.91L422.15 352.31L423.03 353.75L423.94 355.22L424.87 356.72L425.82 358.26L426.79 359.83L427.78 361.42L428.78 363.04L429.8 364.68L430.83 366.34L431.88 368.02L432.93 369.71L433.99 371.42L435.06 373.14L436.14 374.86L437.22 376.59L438.3 378.33L439.39 380.06L440.47 381.8L441.56 383.53L442.64 385.25L442.93 385.71L443.22 386.15L443.51 386.6L443.79 387.03L444.07 387.46L444.34 387.89L444.62 388.31L444.88 388.72L445.15 389.12L445.41 389.52L445.66 389.9L445.91 390.28L446.15 390.65L446.39 391.02L446.63 391.37L446.85 391.71L447.08 392.04L447.29 392.36L447.5 392.67L447.7 392.97L447.9 393.25L448.09 393.53L448.27 393.79L448.44 394.04L448.61 394.28L448.76 394.5L448.91 394.71L449.05 394.9L449.19 395.08L449.31 395.24L449.42 395.39L449.53 395.52L449.62 395.64L449.71 395.74L449.79 395.82L449.85 395.89L449.91 395.94L449.95 395.97L449.98 395.98L450 395.97L450.03 395.93L450.05 395.84L450.08 395.69L450.1 395.5L450.12 395.25L450.14 394.96L450.17 394.63L450.19 394.24L450.21 393.82L450.23 393.35L450.25 392.83L450.27 392.28L450.29 391.68L450.31 391.05L450.33 390.38L450.35 389.67L450.37 388.93L450.39 388.15L450.41 387.33L450.42 386.49L450.44 385.61L450.46 384.7L450.48 383.76L450.5 382.79L450.51 381.79L450.53 380.77L450.55 379.72L450.56 378.65L450.58 377.56L450.6 376.44L450.61 375.3L450.63 374.14L450.65 372.96L450.66 371.76L450.68 370.54L450.7 369.31L450.71 368.07L450.73 366.81L450.75 365.53L450.76 364.25L450.98 332.96L457.8 332.63L464.51 332.31L464.51 419.14L456.72 418.82ZM69.84 343.78L42.77 344.87L41.69 418.5L34.97 418.82L28.15 419.14L28.15 382.44L28.15 380.05L28.15 377.76L28.15 375.57L28.14 373.48L28.14 371.49L28.13 369.6L28.13 367.79L28.12 366.08L28.11 364.45L28.09 362.91L28.08 361.45L28.06 360.08L28.05 358.78L28.03 357.55L28 356.4L27.98 355.33L27.95 354.32L27.92 353.38L27.89 352.5L27.85 351.69L27.82 350.93L27.78 350.24L27.73 349.6L27.68 349.01L27.63 348.47L27.58 347.98L27.52 347.54L27.46 347.15L27.4 346.79L27.33 346.47L27.26 346.19L27.18 345.95L27.1 345.74L27.02 345.56L26.93 345.4L26.84 345.27L26.74 345.17L26.64 345.09L26.53 345.02L26.42 344.97L26.34 344.95L26.23 344.93L26.11 344.9L25.97 344.88L25.82 344.85L25.64 344.83L25.45 344.81L25.24 344.78L25.01 344.76L24.77 344.74L24.51 344.71L24.24 344.69L23.95 344.67L23.65 344.65L23.34 344.63L23.01 344.61L22.67 344.58L22.32 344.57L21.95 344.55L21.57 344.53L21.19 344.51L20.79 344.49L20.38 344.48L19.96 344.46L19.54 344.44L19.1 344.43L18.66 344.42L18.21 344.4L17.75 344.39L17.28 344.38L16.81 344.37L16.33 344.36L15.85 344.35L15.36 344.35L14.87 344.34L14.37 344.33L13.87 344.33L13.36 344.33L12.85 344.33L12.34 344.32L0 344.32L0 332.41L70.49 332.41L70.16 338.04L69.84 343.78ZM484 332.42L484.56 332.42L485.08 332.42L485.58 332.42L486.05 332.43L486.5 332.44L486.93 332.45L487.33 332.46L487.71 332.47L488.06 332.49L488.4 332.51L488.72 332.54L489.02 332.57L489.3 332.6L489.56 332.63L489.81 332.67L490.04 332.72L490.26 332.77L490.46 332.82L490.65 332.88L490.83 332.94L491 333.02L491.15 333.09L491.3 333.18L491.44 333.26L491.57 333.36L491.7 333.46L491.82 333.57L491.93 333.69L492.04 333.82L492.15 333.95L492.25 334.09L492.36 334.24L492.46 334.4L492.56 334.57L492.67 334.75L492.77 334.94L492.88 335.13L492.99 335.34L493.45 336.23L493.94 337.16L494.46 338.12L495.01 339.12L495.58 340.15L496.17 341.2L496.78 342.28L497.41 343.38L498.05 344.5L498.71 345.63L499.37 346.77L500.05 347.91L500.74 349.07L501.43 350.22L502.12 351.37L502.82 352.51L503.51 353.65L504.21 354.78L504.9 355.89L505.58 356.98L506.25 358.05L506.91 359.1L507.56 360.12L508.2 361.1L508.82 362.06L509.42 362.97L510 363.85L510.56 364.68L511.09 365.47L511.6 366.2L512.07 366.88L512.52 367.51L512.94 368.07L513.32 368.58L513.66 369.01L513.96 369.38L514.23 369.68L514.45 369.9L514.62 370.04L514.75 370.09L514.83 370.11L514.9 370.12L514.97 370.13L515.04 370.14L515.11 370.15L515.18 370.16L515.24 370.16L515.31 370.16L515.37 370.16L515.44 370.16L515.5 370.16L515.56 370.15L515.62 370.14L515.67 370.13L515.73 370.12L515.79 370.11L515.84 370.09L515.89 370.08L515.94 370.06L515.99 370.04L516.03 370.02L516.08 370L516.12 369.97L516.16 369.95L516.2 369.92L516.23 369.89L516.27 369.86L516.3 369.83L516.33 369.79L516.35 369.76L516.38 369.72L516.4 369.69L516.42 369.65L516.44 369.61L516.45 369.56L516.46 369.52L516.47 369.48L516.48 369.43L516.49 369.38L516.49 369.34L516.49 369.28L516.5 369.21L516.51 369.14L516.52 369.07L516.54 368.98L516.56 368.9L516.59 368.81L516.62 368.71L516.66 368.61L516.69 368.51L516.74 368.4L516.78 368.29L516.83 368.17L516.88 368.05L516.94 367.92L517 367.8L517.06 367.67L517.12 367.53L517.19 367.39L517.26 367.25L517.33 367.11L517.41 366.96L517.48 366.81L517.56 366.66L517.64 366.51L517.73 366.35L517.82 366.2L517.9 366.04L517.99 365.88L518.09 365.71L518.18 365.55L518.27 365.38L518.37 365.22L518.47 365.05L518.57 364.88L518.67 364.71L518.77 364.54L518.88 364.37L518.98 364.2L519.09 364.03L519.19 363.87L519.3 363.69L519.42 363.52L519.54 363.34L519.66 363.15L519.78 362.96L519.9 362.76L520.03 362.56L520.16 362.36L520.29 362.15L520.43 361.94L520.56 361.72L520.7 361.51L520.84 361.29L520.98 361.06L521.12 360.84L521.26 360.61L521.4 360.39L521.54 360.16L521.68 359.93L521.83 359.7L521.97 359.47L522.11 359.24L522.25 359.01L522.39 358.78L522.53 358.55L522.67 358.32L522.81 358.1L522.94 357.87L523.07 357.65L523.21 357.43L523.34 357.21L523.46 357L523.59 356.78L523.71 356.57L523.83 356.37L523.95 356.17L524.06 355.97L524.18 355.77L524.28 355.59L524.39 355.4L524.51 355.2L524.63 354.99L524.77 354.76L524.91 354.52L525.05 354.27L525.21 354L525.36 353.73L525.53 353.44L525.7 353.15L525.88 352.84L526.06 352.53L526.24 352.2L526.44 351.87L526.63 351.53L526.83 351.18L527.03 350.83L527.24 350.47L527.45 350.1L527.67 349.72L527.88 349.35L528.1 348.96L528.32 348.58L528.55 348.19L528.77 347.79L529 347.4L529.46 346.6L529.69 346.2L529.92 345.79L530.15 345.39L530.38 344.99L530.61 344.59L530.84 344.19L531.07 343.79L531.29 343.39L531.52 343L531.74 342.61L531.97 342.22L532.19 341.83L537.6 332.41L545.51 332.41L545.82 332.41L546.13 332.42L546.44 332.42L546.75 332.42L547.05 332.42L547.35 332.43L547.65 332.43L547.94 332.44L548.22 332.44L548.5 332.45L548.78 332.46L549.05 332.47L549.32 332.48L549.58 332.48L549.83 332.49L550.07 332.5L550.31 332.51L550.55 332.53L550.77 332.54L550.99 332.55L551.2 332.56L551.4 332.57L551.59 332.59L551.77 332.6L551.95 332.61L552.11 332.63L552.27 332.64L552.42 332.66L552.55 332.67L552.68 332.69L552.79 332.7L552.9 332.72L552.99 332.73L553.07 332.75L553.14 332.77L553.2 332.78L553.24 332.8L553.27 332.81L553.29 332.83L553.3 332.85L553.3 332.88L553.28 332.93L553.25 333L553.21 333.09L553.15 333.2L553.09 333.32L553.02 333.46L552.93 333.62L552.84 333.79L552.73 333.98L552.62 334.19L552.49 334.41L552.36 334.64L552.21 334.89L552.06 335.15L551.9 335.42L551.73 335.71L551.55 336.01L551.37 336.33L551.18 336.65L550.98 336.99L550.77 337.33L550.55 337.69L550.33 338.06L550.1 338.44L549.87 338.83L549.63 339.23L549.38 339.64L549.13 340.05L548.87 340.48L548.61 340.91L548.34 341.35L548.07 341.79L547.79 342.25L547.51 342.7L547.22 343.17L546.93 343.64L546.64 344.12L546.35 344.6L546.05 345.08L545.75 345.56L545.46 346.05L545.16 346.53L544.86 347.02L544.57 347.51L544.27 348L543.67 348.97L543.37 349.46L543.08 349.95L542.78 350.43L542.49 350.91L542.2 351.39L541.91 351.86L541.62 352.33L541.34 352.8L541.06 353.26L540.78 353.71L540.51 354.16L540.24 354.6L539.98 355.03L539.72 355.45L539.46 355.87L539.22 356.28L538.98 356.67L538.74 357.06L538.51 357.44L538.29 357.8L538.08 358.16L537.87 358.5L537.67 358.83L537.48 359.14L537.3 359.44L537.13 359.73L536.96 360L536.81 360.25L536.67 360.49L536.54 360.71L536.41 360.92L536.3 361.11L536.19 361.29L536.07 361.49L535.95 361.7L535.81 361.92L535.67 362.15L535.52 362.4L535.37 362.65L535.21 362.92L535.04 363.19L534.86 363.47L534.68 363.76L534.5 364.06L534.31 364.37L534.11 364.69L533.91 365.01L533.7 365.34L533.49 365.67L533.28 366.01L533.06 366.36L532.84 366.71L532.61 367.07L532.38 367.43L532.15 367.79L531.92 368.16L531.69 368.52L531.45 368.9L531.21 369.27L530.97 369.64L530.73 370.02L530.49 370.4L530.24 370.77L530 371.15L529.76 371.52L529.51 371.9L529.27 372.27L529.03 372.64L528.79 373.01L528.55 373.38L528.31 373.74L528.07 374.1L522.44 382.76L521.36 418.5L514.1 418.82L506.74 419.14L506.74 384.5L499.16 372.48L498.84 371.99L498.53 371.49L498.2 371L497.88 370.5L497.56 370L497.24 369.49L496.92 368.99L496.59 368.48L496.27 367.98L495.95 367.48L495.63 366.97L495.31 366.47L495 365.97L494.69 365.48L494.38 364.99L494.07 364.5L493.77 364.01L493.47 363.54L493.17 363.06L492.88 362.6L492.6 362.14L492.32 361.69L492.04 361.24L491.77 360.81L491.51 360.38L491.25 359.96L491 359.56L490.76 359.16L490.53 358.78L490.3 358.41L490.08 358.05L489.87 357.7L489.67 357.37L489.48 357.05L489.3 356.75L489.13 356.46L488.97 356.19L488.82 355.94L488.68 355.7L488.55 355.48L488.46 355.33L488.36 355.16L488.26 354.99L488.15 354.81L488.04 354.62L487.91 354.41L487.79 354.2L487.65 353.97L487.51 353.74L487.36 353.49L487.21 353.24L487.04 352.97L486.88 352.7L486.7 352.41L486.52 352.11L486.33 351.8L486.14 351.49L485.94 351.16L485.73 350.82L485.52 350.47L485.3 350.11L485.07 349.74L484.84 349.36L484.6 348.97L484.36 348.57L484.1 348.15L483.84 347.73L483.58 347.3L483.31 346.86L483.03 346.4L482.74 345.94L482.45 345.46L482.16 344.98L481.85 344.48L481.54 343.98L481.22 343.46L480.9 342.93L480.57 342.4L480.23 341.85L479.89 341.29L474.26 332.41L482.81 332.41L483.42 332.41L484 332.42ZM166.87 332.42L167.23 332.42L167.59 332.43L167.93 332.44L168.25 332.44L168.57 332.46L168.87 332.47L169.16 332.48L169.45 332.5L169.71 332.52L169.97 332.54L170.22 332.57L170.46 332.59L170.69 332.62L170.9 332.65L171.11 332.68L171.31 332.72L171.5 332.75L171.67 332.79L171.85 332.83L172.01 332.88L172.16 332.93L172.3 332.98L172.44 333.03L172.57 333.08L172.69 333.14L172.8 333.2L172.91 333.26L173.01 333.33L173.1 333.4L173.19 333.47L173.27 333.54L173.35 333.62L173.41 333.7L173.48 333.78L173.54 333.87L173.59 333.96L173.64 334.05L173.68 334.15L173.7 334.25L173.73 334.41L173.75 334.63L173.78 334.9L173.8 335.23L173.82 335.61L173.85 336.04L173.87 336.52L173.89 337.06L173.92 337.64L173.94 338.27L173.96 338.94L173.98 339.66L174.01 340.42L174.03 341.23L174.05 342.07L174.07 342.96L174.09 343.88L174.11 344.84L174.12 345.84L174.14 346.87L174.16 347.94L174.18 349.04L174.19 350.17L174.21 351.33L174.22 352.52L174.24 353.73L174.25 354.97L174.26 356.24L174.27 357.53L174.28 358.85L174.29 360.19L174.3 361.54L174.31 362.92L174.31 364.31L174.32 365.72L174.32 367.15L174.33 368.59L174.33 370.04L174.33 371.5L174.33 407.13L218.72 407.13L218.72 419.04L159.17 419.04L159.17 332.41L166.1 332.41L166.49 332.41L166.87 332.42ZM143.47 343.78L120.84 344.11L119.76 344.12L118.71 344.13L117.67 344.14L116.66 344.15L115.68 344.17L114.71 344.19L113.77 344.2L112.85 344.22L111.95 344.24L111.08 344.27L110.23 344.29L109.41 344.32L108.61 344.34L107.83 344.37L107.08 344.4L106.35 344.43L105.65 344.46L104.97 344.5L104.32 344.53L103.69 344.57L103.09 344.61L102.51 344.64L101.96 344.68L101.43 344.72L100.93 344.77L100.46 344.81L100.02 344.85L99.6 344.9L99.2 344.94L98.84 344.99L98.5 345.04L98.18 345.09L97.9 345.14L97.64 345.19L97.41 345.24L97.21 345.29L97.04 345.35L96.9 345.4L96.78 345.46L96.69 345.52L96.56 345.67L96.43 345.88L96.31 346.16L96.19 346.49L96.08 346.87L95.98 347.3L95.89 347.78L95.8 348.29L95.72 348.85L95.64 349.44L95.57 350.07L95.51 350.73L95.45 351.41L95.41 352.11L95.36 352.84L95.33 353.58L95.3 354.33L95.28 355.1L95.27 355.87L95.26 356.64L95.26 357.42L95.26 358.19L95.28 358.96L95.3 359.71L95.32 360.46L95.36 361.19L95.4 361.9L95.45 362.58L95.5 363.25L95.57 363.88L95.64 364.48L95.71 365.05L95.8 365.58L95.89 366.06L95.98 366.5L96.09 366.9L96.2 367.24L96.32 367.53L96.45 367.76L96.58 367.93L96.67 368L96.77 368.07L96.9 368.14L97.04 368.2L97.21 368.26L97.4 368.32L97.61 368.38L97.84 368.44L98.1 368.49L98.38 368.54L98.68 368.59L99 368.64L99.35 368.68L99.73 368.73L100.12 368.77L100.55 368.81L100.99 368.84L101.46 368.88L101.96 368.91L102.49 368.94L103.03 368.97L103.61 369L104.21 369.03L104.84 369.05L105.5 369.07L106.18 369.1L106.89 369.11L107.63 369.13L108.4 369.15L109.19 369.16L110.02 369.18L110.87 369.19L111.75 369.2L112.67 369.21L113.61 369.21L114.58 369.22L115.58 369.22L116.62 369.23L117.68 369.23L118.78 369.23L139.68 369.23L139.68 380.06L118.13 380.06L116.76 380.06L115.45 380.06L114.2 380.06L113 380.06L111.85 380.07L110.76 380.07L109.72 380.08L108.72 380.09L107.78 380.1L106.88 380.11L106.03 380.13L105.23 380.14L104.46 380.16L103.74 380.18L103.07 380.2L102.43 380.23L101.83 380.26L101.27 380.29L100.74 380.32L100.25 380.35L99.8 380.39L99.37 380.43L98.98 380.48L98.62 380.52L98.29 380.57L97.98 380.63L97.7 380.69L97.45 380.75L97.22 380.81L97.01 380.88L96.83 380.95L96.66 381.03L96.52 381.11L96.39 381.19L96.28 381.28L96.18 381.37L96.1 381.47L96.04 381.57L95.98 381.68L95.93 381.79L95.86 382.01L95.8 382.29L95.74 382.63L95.68 383.02L95.62 383.47L95.57 383.97L95.53 384.51L95.49 385.09L95.45 385.71L95.42 386.37L95.39 387.05L95.37 387.77L95.35 388.51L95.33 389.27L95.32 390.05L95.31 390.85L95.3 391.66L95.3 392.48L95.31 393.3L95.31 394.12L95.32 394.94L95.34 395.76L95.35 396.56L95.37 397.36L95.4 398.14L95.42 398.9L95.46 399.64L95.49 400.35L95.53 401.04L95.57 401.69L95.61 402.31L95.66 402.89L95.71 403.42L95.77 403.91L95.82 404.36L95.88 404.75L95.94 405.08L96.01 405.36L96.08 405.57L96.15 405.72L96.21 405.79L96.29 405.86L96.4 405.93L96.53 405.99L96.68 406.06L96.86 406.12L97.06 406.18L97.29 406.24L97.55 406.3L97.83 406.35L98.14 406.41L98.47 406.46L98.84 406.51L99.23 406.56L99.65 406.6L100.09 406.65L100.57 406.69L101.08 406.73L101.62 406.78L102.19 406.81L102.79 406.85L103.42 406.89L104.08 406.92L104.78 406.96L105.51 406.99L106.27 407.02L107.07 407.05L107.9 407.08L108.77 407.11L109.67 407.13L110.61 407.16L111.58 407.18L112.59 407.21L113.64 407.23L114.73 407.25L115.85 407.27L117.01 407.29L118.21 407.31L119.45 407.33L120.73 407.34L144.55 407.67L144.88 413.41L145.2 419.04L113.48 418.82L81.75 418.5L81.43 375.4L81.21 332.41L144.12 332.41L143.79 338.04L143.47 343.78ZM245.25 406.58L267.23 406.91L289.1 407.13L289.1 419.04L230.63 419.04L230.63 332.41L244.71 332.41L244.93 369.45L245.25 406.58ZM337.33 341.79L336.94 341.8L336.56 341.82L336.17 341.85L335.78 341.88L335.39 341.92L334.99 341.97L334.59 342.02L334.19 342.08L333.78 342.15L333.37 342.22L332.95 342.29L332.52 342.38L331.85 342.53L331.19 342.69L330.55 342.87L329.91 343.07L329.29 343.28L328.67 343.5L328.07 343.74L327.48 344L326.9 344.26L326.32 344.55L325.76 344.85L325.21 345.16L324.67 345.49L324.13 345.84L323.61 346.2L323.09 346.57L322.59 346.97L322.09 347.38L321.6 347.8L321.12 348.24L320.65 348.7L320.18 349.18L319.72 349.67L319.27 350.18L318.83 350.71L318.4 351.25L317.97 351.81L317.55 352.39L317.14 352.98L316.73 353.6L316.33 354.23L315.93 354.88L315.54 355.55L315.16 356.23L314.78 356.94L314.41 357.66L314.04 358.4L313.68 359.16L313.54 359.49L313.4 359.82L313.27 360.14L313.14 360.46L313.02 360.78L312.9 361.1L312.79 361.41L312.68 361.73L312.58 362.05L312.48 362.37L312.39 362.69L312.3 363.02L312.22 363.35L312.14 363.69L312.06 364.03L311.99 364.38L311.92 364.73L311.86 365.09L311.8 365.47L311.74 365.85L311.69 366.24L311.64 366.64L311.6 367.05L311.56 367.48L311.52 367.92L311.49 368.37L311.45 368.84L311.43 369.33L311.4 369.83L311.38 370.34L311.36 370.88L311.34 371.43L311.33 372L311.32 372.6L311.31 373.21L311.3 373.85L311.3 374.5L311.3 375.18L311.3 376.19L311.32 377.17L311.34 378.14L311.38 379.08L311.42 380L311.47 380.9L311.54 381.78L311.61 382.64L311.7 383.48L311.8 384.31L311.9 385.11L312.02 385.9L312.15 386.68L312.29 387.43L312.44 388.17L312.61 388.9L312.78 389.6L312.97 390.3L313.17 390.98L313.38 391.65L313.6 392.3L313.84 392.94L314.09 393.57L314.35 394.18L314.62 394.79L314.91 395.38L315.21 395.96L315.52 396.54L315.85 397.1L316.19 397.66L316.54 398.2L316.91 398.74L317.3 399.27L317.69 399.79L318.1 400.31L318.53 400.82L318.97 401.32L319.42 401.82L319.81 402.24L320.21 402.65L320.61 403.04L321.01 403.42L321.41 403.79L321.82 404.14L322.23 404.48L322.64 404.81L323.05 405.12L323.48 405.42L323.9 405.71L324.33 405.99L324.77 406.25L325.21 406.5L325.66 406.74L326.11 406.97L326.57 407.19L327.04 407.39L327.51 407.59L328 407.77L328.49 407.94L328.99 408.1L329.49 408.25L330.01 408.39L330.54 408.52L331.07 408.63L331.62 408.74L332.17 408.84L332.74 408.93L333.32 409.01L333.9 409.07L334.51 409.13L335.12 409.18L335.74 409.22L336.38 409.25L337.03 409.27L337.69 409.29L338.37 409.29L339.26 409.28L340.13 409.25L340.98 409.2L341.82 409.13L342.64 409.03L343.44 408.92L344.23 408.79L345 408.63L345.75 408.45L346.49 408.25L347.21 408.03L347.92 407.78L348.62 407.52L349.3 407.23L349.96 406.91L350.61 406.58L351.25 406.22L351.87 405.84L352.49 405.43L353.08 405.01L353.67 404.55L354.24 404.08L354.81 403.58L355.36 403.05L355.89 402.5L356.42 401.93L356.94 401.33L357.44 400.71L357.94 400.06L358.42 399.38L358.9 398.68L359.36 397.96L359.82 397.2L360.27 396.43L360.71 395.62L361.14 394.79L361.56 393.93L361.97 393.05L362.23 392.46L362.48 391.81L362.71 391.12L362.92 390.38L363.12 389.6L363.31 388.77L363.49 387.91L363.65 387.01L363.8 386.08L363.93 385.13L364.05 384.14L364.15 383.13L364.24 382.11L364.32 381.06L364.39 380L364.44 378.93L364.47 377.85L364.5 376.76L364.5 375.67L364.5 374.58L364.48 373.5L364.45 372.41L364.4 371.34L364.34 370.28L364.27 369.24L364.18 368.21L364.08 367.2L363.97 366.22L363.84 365.26L363.7 364.33L363.55 363.43L363.38 362.57L363.2 361.74L363 360.96L362.79 360.22L362.57 359.53L362.33 358.88L362.08 358.29L361.82 357.74L361.55 357.19L361.28 356.66L360.99 356.13L360.7 355.6L360.4 355.09L360.1 354.58L359.79 354.08L359.47 353.59L359.15 353.11L358.82 352.63L358.48 352.17L358.14 351.71L357.79 351.27L357.44 350.83L357.08 350.4L356.72 349.99L356.35 349.58L355.98 349.18L355.6 348.8L355.22 348.42L354.84 348.06L354.45 347.71L354.06 347.36L353.66 347.03L353.27 346.72L352.87 346.41L352.46 346.12L352.06 345.83L351.65 345.57L351.24 345.31L350.83 345.07L350.42 344.84L350 344.62L349.58 344.42L349.17 344.23L348.75 344.05L348.33 343.89L347.82 343.72L347.33 343.55L346.84 343.39L346.36 343.24L345.89 343.09L345.43 342.96L344.98 342.83L344.53 342.71L344.1 342.6L343.67 342.49L343.24 342.39L342.82 342.3L342.41 342.22L342 342.14L341.6 342.08L341.2 342.02L340.8 341.96L340.41 341.91L340.02 341.87L339.63 341.84L339.25 341.82L338.86 341.8L338.48 341.78L338.09 341.78L337.71 341.78L337.33 341.79ZM446.64 17.99L446.74 20.9L446.84 24.1L446.94 27.57L447.03 31.29L447.12 35.24L447.2 39.4L447.28 43.76L447.36 48.3L447.44 52.99L447.51 57.83L447.57 62.78L447.63 67.84L447.69 72.99L447.75 78.21L447.8 83.47L447.84 88.77L447.88 94.08L447.92 99.38L447.95 104.66L447.97 109.91L447.99 115.09L448.01 120.19L448.02 125.2L448.03 130.09L448.03 134.85L448.02 139.47L448.01 143.91L447.99 148.17L447.97 152.22L447.94 156.05L447.91 159.63L447.87 162.96L447.82 166.01L447.77 168.77L447.71 171.21L447.64 173.32L447.57 175.07L447.49 176.46L447.41 177.47L447.35 177.91L447.29 178.38L447.23 178.87L447.16 179.38L447.1 179.92L447.03 180.47L446.96 181.05L446.89 181.64L446.82 182.25L446.75 182.88L446.68 183.52L446.6 184.19L446.53 184.86L446.45 185.55L446.38 186.25L446.3 186.96L446.22 187.68L446.14 188.42L446.06 189.16L445.98 189.91L445.9 190.66L445.83 191.43L445.75 192.19L445.67 192.97L445.59 193.74L445.51 194.52L445.43 195.3L445.35 196.08L445.27 196.86L445.2 197.64L445.12 198.42L445.05 199.2L444.97 199.97L444.9 200.73L444.83 201.5L444.75 202.25L444.68 203L444.61 203.74L444.55 204.47L444.48 205.19L444.41 205.91L444.33 206.63L444.26 207.36L444.18 208.09L444.11 208.83L444.03 209.57L443.95 210.31L443.88 211.05L443.8 211.8L443.72 212.54L443.65 213.28L443.57 214.02L443.49 214.76L443.42 215.49L443.34 216.21L443.26 216.94L443.19 217.65L443.11 218.36L443.04 219.06L442.97 219.75L442.89 220.43L442.82 221.1L442.75 221.76L442.68 222.41L442.61 223.04L442.54 223.66L442.48 224.27L442.41 224.86L442.35 225.43L442.29 225.99L442.23 226.52L442.17 227.04L442.11 227.54L442.06 228.02L442.01 228.48L441.96 228.91L441.91 229.33L441.86 229.71L441.82 230.08L441.77 230.42L441.73 230.74L441.68 231.07L441.63 231.41L441.59 231.75L441.54 232.09L441.5 232.43L441.45 232.78L441.41 233.12L441.37 233.47L441.33 233.82L441.29 234.17L441.25 234.52L441.22 234.87L441.18 235.22L441.15 235.56L441.11 235.91L441.08 236.25L441.05 236.59L441.02 236.93L440.99 237.26L440.96 237.6L440.94 237.92L440.91 238.25L440.89 238.56L440.86 238.88L440.84 239.18L440.82 239.48L440.8 239.78L440.79 240.06L440.77 240.34L440.76 240.62L440.74 240.88L440.73 241.14L440.72 241.38L440.71 241.62L440.7 241.85L440.7 242.06L440.7 242.27L440.69 242.47L440.69 242.65L440.69 242.95L440.69 243.24L440.68 243.52L440.68 243.78L440.67 244.04L440.65 244.28L440.63 244.51L440.61 244.73L440.58 244.95L440.54 245.16L440.5 245.36L440.46 245.55L440.4 245.74L440.34 245.92L440.26 246.1L440.18 246.27L440.09 246.44L439.99 246.61L439.88 246.78L439.76 246.94L439.62 247.11L439.48 247.27L439.32 247.44L439.15 247.6L438.96 247.77L438.76 247.94L438.55 248.12L438.32 248.29L438.08 248.48L437.81 248.67L437.54 248.86L437.24 249.06L436.93 249.27L436.6 249.49L436.25 249.71L435.88 249.95L435.49 250.19L435.08 250.44L434.65 250.71L434.2 250.99L433.93 251.15L433.66 251.31L433.4 251.48L433.15 251.64L432.89 251.8L432.64 251.96L432.39 252.12L432.15 252.27L431.91 252.43L431.67 252.59L431.44 252.74L431.22 252.89L431 253.04L430.78 253.19L430.57 253.33L430.36 253.48L430.17 253.62L429.97 253.75L429.79 253.89L429.61 254.02L429.43 254.15L429.27 254.27L429.11 254.39L428.96 254.51L428.81 254.63L428.68 254.74L428.55 254.84L428.43 254.94L428.31 255.04L428.21 255.13L428.12 255.22L428.03 255.3L427.96 255.38L427.89 255.45L427.83 255.51L427.78 255.57L427.75 255.63L427.72 255.68L427.7 255.72L427.7 255.75L427.71 255.79L427.73 255.85L427.78 255.93L427.84 256.02L427.92 256.13L428.01 256.25L428.12 256.39L428.24 256.54L428.38 256.71L428.54 256.89L428.71 257.09L428.89 257.29L429.09 257.52L429.3 257.75L429.52 258L429.76 258.26L430.01 258.53L430.27 258.81L430.54 259.1L430.83 259.41L431.12 259.72L431.43 260.04L431.74 260.38L432.07 260.72L432.41 261.07L432.76 261.43L433.11 261.8L433.48 262.17L433.85 262.55L434.23 262.94L434.62 263.33L435.02 263.74L435.42 264.14L435.83 264.56L436.25 264.97L436.67 265.39L437.1 265.82L437.53 266.25L437.97 266.69L438.42 267.12L439.07 267.77L439.71 268.43L440.36 269.1L441 269.76L441.63 270.44L442.27 271.11L442.9 271.8L443.52 272.48L444.14 273.17L444.76 273.87L445.38 274.56L445.99 275.26L446.59 275.97L447.19 276.67L447.79 277.38L448.38 278.09L448.96 278.81L449.54 279.52L450.11 280.24L450.68 280.95L451.24 281.67L451.8 282.39L452.35 283.12L452.89 283.84L453.42 284.56L453.95 285.28L454.47 286L454.99 286.72L455.49 287.45L455.99 288.17L456.48 288.88L456.96 289.6L457.44 290.32L457.9 291.03L458.36 291.75L458.81 292.46L459.25 293.17L459.68 293.87L460.1 294.57L460.51 295.27L460.55 295.36L460.58 295.47L460.59 295.59L460.57 295.73L460.54 295.88L460.5 296.04L460.43 296.22L460.36 296.4L460.26 296.59L460.16 296.8L460.04 297.01L459.91 297.23L459.76 297.45L459.61 297.68L459.45 297.91L459.28 298.14L459.1 298.38L458.91 298.62L458.72 298.85L458.52 299.09L458.31 299.33L458.11 299.56L457.9 299.78L457.68 300.01L457.47 300.22L457.26 300.43L457.04 300.63L456.83 300.83L456.62 301.01L456.41 301.18L456.21 301.34L456.01 301.49L455.81 301.62L455.62 301.74L455.44 301.85L455.27 301.93L455.1 302L454.94 302.05L454.8 302.09L454.66 302.1L454.63 302.09L454.59 302.07L454.55 302.04L454.49 301.99L454.43 301.94L454.36 301.87L454.28 301.79L454.2 301.7L454.1 301.6L454.01 301.49L453.9 301.36L453.79 301.23L453.67 301.09L453.54 300.93L453.41 300.77L453.27 300.6L453.13 300.42L452.98 300.23L452.83 300.03L452.67 299.82L452.51 299.61L452.34 299.38L452.17 299.15L451.99 298.92L451.81 298.67L451.63 298.42L451.45 298.16L451.26 297.89L451.06 297.62L450.87 297.35L450.67 297.06L450.47 296.77L450.27 296.48L450.06 296.18L449.86 295.88L449.65 295.57L449.44 295.26L449.23 294.94L449.02 294.62L448.81 294.3L447.89 292.98L446.94 291.66L445.97 290.34L444.97 289.03L443.95 287.73L442.9 286.43L441.84 285.14L440.76 283.86L439.65 282.58L438.53 281.32L437.4 280.07L436.25 278.83L435.08 277.61L433.9 276.39L432.71 275.2L431.51 274.02L430.29 272.86L429.07 271.71L427.84 270.58L426.6 269.48L425.36 268.39L424.11 267.33L422.86 266.29L421.6 265.27L420.35 264.27L419.09 263.31L417.84 262.36L416.58 261.45L415.33 260.56L414.08 259.71L412.84 258.88L411.6 258.08L410.37 257.32L409.15 256.59L407.93 255.89L406.73 255.22L405.54 254.6L404.36 254.01L403.19 253.45L402.04 252.94L393.27 249.15L383.2 256.19L382.78 256.47L382.37 256.75L381.96 257.03L381.56 257.3L381.16 257.57L380.76 257.84L380.37 258.1L379.98 258.36L379.59 258.62L379.22 258.87L378.84 259.11L378.47 259.35L378.11 259.59L377.76 259.82L377.41 260.04L377.07 260.26L376.74 260.47L376.42 260.68L376.1 260.88L375.79 261.07L375.49 261.26L375.21 261.44L374.93 261.61L374.66 261.77L374.4 261.92L374.16 262.07L373.92 262.21L373.7 262.34L373.48 262.46L373.28 262.57L373.1 262.67L372.92 262.76L372.76 262.84L372.62 262.91L372.48 262.97L372.36 263.02L372.26 263.06L372.17 263.09L372.1 263.11L372.04 263.12L372 263.11L371.93 263.09L371.85 263.07L371.76 263.03L371.65 262.98L371.53 262.93L371.39 262.86L371.24 262.78L371.08 262.7L370.91 262.6L370.72 262.5L370.52 262.39L370.31 262.27L370.09 262.14L369.85 262L369.61 261.86L369.36 261.71L369.09 261.55L368.82 261.38L368.54 261.21L368.25 261.03L367.95 260.84L367.64 260.65L367.33 260.45L367.01 260.25L366.68 260.03L366.34 259.82L366 259.6L365.65 259.37L365.3 259.14L364.94 258.91L364.58 258.67L364.21 258.42L363.84 258.18L363.46 257.92L363.08 257.67L362.7 257.41L362.32 257.15L361.93 256.89L361.54 256.62L361.15 256.35L360.77 256.09L360.38 255.83L360 255.57L359.62 255.31L359.25 255.06L358.88 254.82L358.52 254.57L358.16 254.33L357.8 254.1L357.45 253.87L357.11 253.64L356.77 253.42L356.44 253.2L356.11 252.99L355.79 252.79L355.48 252.59L355.18 252.4L354.88 252.21L354.6 252.03L354.32 251.86L354.05 251.69L353.79 251.53L353.54 251.38L353.3 251.24L353.07 251.1L352.86 250.97L352.65 250.85L352.45 250.74L352.27 250.64L352.1 250.54L351.94 250.46L351.79 250.38L351.66 250.31L351.53 250.26L351.43 250.21L351.34 250.17L351.26 250.14L351.19 250.13L351.15 250.12L351.1 250.13L351.03 250.14L350.96 250.17L350.86 250.21L350.76 250.26L350.64 250.31L350.5 250.38L350.36 250.46L350.2 250.54L350.02 250.64L349.84 250.74L349.64 250.85L349.44 250.97L349.22 251.1L348.99 251.24L348.75 251.38L348.5 251.53L348.24 251.69L347.97 251.86L347.69 252.03L347.41 252.21L347.11 252.4L346.81 252.59L346.5 252.79L346.18 252.99L345.86 253.2L345.52 253.42L345.19 253.64L344.84 253.87L344.49 254.1L344.14 254.33L343.78 254.57L343.41 254.82L343.04 255.06L342.67 255.31L342.29 255.57L341.91 255.83L341.53 256.09L341.14 256.35L340.75 256.62L340.36 256.89L339.98 257.15L339.59 257.41L339.21 257.67L338.83 257.92L338.45 258.18L338.08 258.42L337.71 258.67L337.35 258.91L336.99 259.14L336.64 259.37L336.29 259.6L335.95 259.82L335.61 260.03L335.28 260.25L334.96 260.45L334.64 260.65L334.33 260.84L334.03 261.03L333.74 261.21L333.46 261.38L333.18 261.55L332.92 261.71L332.66 261.86L332.41 262L332.18 262.14L331.95 262.27L331.74 262.39L331.53 262.5L331.34 262.6L331.16 262.7L330.99 262.78L330.84 262.86L330.7 262.93L330.57 262.98L330.45 263.03L330.35 263.07L330.27 263.09L330.2 263.11L330.14 263.12L330.08 263.11L330.01 263.09L329.93 263.07L329.83 263.03L329.71 262.98L329.58 262.93L329.44 262.86L329.29 262.78L329.12 262.7L328.94 262.6L328.75 262.5L328.54 262.39L328.33 262.27L328.1 262.14L327.87 262L327.62 261.86L327.36 261.71L327.1 261.55L326.82 261.38L326.54 261.21L326.25 261.03L325.95 260.84L325.64 260.65L325.32 260.45L325 260.25L324.67 260.03L324.33 259.82L323.99 259.6L323.64 259.37L323.29 259.14L322.93 258.91L322.57 258.67L322.2 258.42L321.83 258.18L321.45 257.92L321.07 257.67L320.69 257.41L320.3 257.15L319.92 256.89L319.53 256.62L319.14 256.35L318.75 256.09L318.37 255.83L317.99 255.57L317.61 255.31L317.24 255.06L316.87 254.82L316.5 254.57L316.14 254.33L315.79 254.1L315.44 253.87L315.09 253.64L314.76 253.42L314.42 253.2L314.1 252.99L313.78 252.79L313.47 252.59L313.17 252.4L312.87 252.21L312.59 252.03L312.31 251.86L312.04 251.69L311.78 251.53L311.53 251.38L311.29 251.24L311.06 251.1L310.84 250.97L310.64 250.85L310.44 250.74L310.26 250.64L310.08 250.54L309.92 250.46L309.78 250.38L309.64 250.31L309.52 250.26L309.42 250.21L309.32 250.17L309.25 250.14L309.18 250.13L309.13 250.12L309.09 250.13L309.02 250.14L308.94 250.17L308.85 250.21L308.75 250.26L308.62 250.31L308.49 250.38L308.34 250.46L308.18 250.54L308.01 250.64L307.83 250.74L307.63 250.85L307.43 250.97L307.21 251.1L306.98 251.24L306.74 251.38L306.49 251.53L306.23 251.69L305.96 251.86L305.68 252.03L305.4 252.21L305.1 252.4L304.8 252.59L304.49 252.79L304.17 252.99L303.84 253.2L303.51 253.42L303.17 253.64L302.83 253.87L302.48 254.1L302.12 254.33L301.76 254.57L301.4 254.82L301.03 255.06L300.66 255.31L300.28 255.57L299.9 255.83L299.51 256.09L299.13 256.35L298.74 256.62L298.35 256.89L297.96 257.15L297.58 257.41L297.2 257.67L296.82 257.92L296.44 258.18L296.07 258.42L295.7 258.67L295.34 258.91L294.98 259.14L294.63 259.37L294.28 259.6L293.94 259.82L293.6 260.03L293.27 260.25L292.95 260.45L292.63 260.65L292.32 260.84L292.02 261.03L291.73 261.21L291.44 261.38L291.17 261.55L290.9 261.71L290.65 261.86L290.4 262L290.16 262.14L289.94 262.27L289.72 262.39L289.52 262.5L289.33 262.6L289.15 262.7L288.98 262.78L288.83 262.86L288.69 262.93L288.56 262.98L288.44 263.03L288.34 263.07L288.26 263.09L288.18 263.11L288.13 263.12L288.03 263.1L287.88 263.06L287.7 262.98L287.48 262.88L287.22 262.75L286.93 262.6L286.6 262.42L286.25 262.22L285.87 262L285.46 261.76L285.03 261.5L284.58 261.23L284.1 260.93L283.61 260.63L283.1 260.31L282.58 259.97L282.04 259.63L281.49 259.27L280.94 258.91L280.37 258.54L279.8 258.16L279.23 257.78L278.66 257.4L278.09 257.01L277.52 256.62L276.95 256.24L276.39 255.85L275.84 255.47L275.3 255.09L274.77 254.71L274.26 254.34L273.76 253.98L273.28 253.63L272.82 253.29L272.38 252.96L271.97 252.64L271.58 252.34L271.22 252.05L270.89 251.78L270.59 251.53L270.4 251.37L270.22 251.22L270.03 251.09L269.84 250.96L269.65 250.84L269.46 250.73L269.27 250.64L269.07 250.55L268.87 250.47L268.66 250.41L268.45 250.35L268.23 250.31L268.01 250.28L267.77 250.25L267.53 250.24L267.28 250.24L267.01 250.25L266.74 250.27L266.46 250.31L266.16 250.35L265.85 250.41L265.53 250.48L265.19 250.56L264.84 250.65L264.47 250.75L264.09 250.87L263.69 251L263.27 251.14L262.84 251.29L262.38 251.45L261.9 251.63L261.41 251.82L260.89 252.02L260.35 252.24L259.79 252.47L259.21 252.71L258.6 252.96L257.96 253.23L257.3 253.51L256.62 253.8L255.63 254.24L254.64 254.69L253.65 255.16L252.66 255.65L251.67 256.16L250.69 256.7L249.7 257.25L248.71 257.82L247.73 258.41L246.74 259.03L245.76 259.66L244.77 260.31L243.79 260.99L242.81 261.68L241.82 262.39L240.84 263.13L239.85 263.88L238.87 264.66L237.88 265.45L236.9 266.27L235.91 267.11L234.93 267.96L233.94 268.84L232.96 269.74L231.97 270.66L230.99 271.6L230 272.56L229.01 273.54L228.02 274.54L227.03 275.56L226.04 276.61L225.05 277.67L224.06 278.76L223.07 279.86L222.08 280.99L221.08 282.14L220.09 283.3L219.09 284.49L218.1 285.71L217.1 286.94L216.81 287.3L216.53 287.66L216.24 288.02L215.96 288.38L215.68 288.74L215.4 289.1L215.11 289.47L214.84 289.83L214.56 290.19L214.28 290.55L214.01 290.91L213.74 291.26L213.47 291.62L213.21 291.97L212.95 292.31L212.69 292.66L212.44 293L212.19 293.33L211.95 293.66L211.71 293.99L211.48 294.31L211.25 294.62L211.03 294.93L210.81 295.23L210.61 295.53L210.4 295.81L210.21 296.09L210.02 296.36L209.84 296.63L209.67 296.88L209.5 297.12L209.35 297.36L209.2 297.58L209.06 297.8L208.93 298L208.81 298.2L208.7 298.38L208.6 298.55L208.51 298.7L208.44 298.85L206.7 302.2L203.56 300.26L203.43 300.18L203.3 300.11L203.18 300.03L203.05 299.95L202.92 299.87L202.79 299.79L202.67 299.71L202.55 299.63L202.42 299.54L202.3 299.46L202.18 299.38L202.07 299.29L201.95 299.21L201.83 299.12L201.72 299.03L201.61 298.95L201.5 298.86L201.4 298.78L201.3 298.69L201.19 298.6L201.1 298.52L201 298.43L200.91 298.35L200.82 298.27L200.73 298.18L200.65 298.1L200.57 298.02L200.49 297.94L200.42 297.87L200.35 297.79L200.28 297.71L200.22 297.64L200.16 297.57L200.11 297.5L200.06 297.43L200.02 297.36L199.98 297.3L199.94 297.23L199.91 297.17L199.88 297.12L199.82 296.83L199.82 296.48L199.89 296.06L200.02 295.58L200.21 295.04L200.46 294.45L200.77 293.8L201.13 293.1L201.54 292.36L202 291.57L202.5 290.74L203.05 289.88L203.64 288.98L204.27 288.04L204.94 287.08L205.64 286.09L206.38 285.08L207.15 284.05L207.94 282.99L208.76 281.93L209.6 280.85L210.47 279.77L211.35 278.67L212.25 277.58L213.17 276.48L214.1 275.39L215.03 274.3L215.98 273.23L216.93 272.16L217.88 271.11L218.83 270.07L219.78 269.06L220.73 268.07L221.67 267.1L222.61 266.17L223.53 265.27L224.44 264.4L225.33 263.57L226.2 262.78L227.06 262.03L227.29 261.83L227.53 261.63L227.76 261.43L227.98 261.23L228.21 261.03L228.43 260.84L228.65 260.64L228.86 260.45L229.07 260.26L229.28 260.07L229.48 259.89L229.68 259.71L229.88 259.53L230.07 259.35L230.25 259.18L230.44 259.01L230.61 258.84L230.78 258.68L230.95 258.52L231.11 258.37L231.26 258.22L231.41 258.07L231.55 257.93L231.68 257.79L231.81 257.66L231.93 257.53L232.05 257.41L232.15 257.3L232.25 257.19L232.34 257.08L232.43 256.99L232.5 256.89L232.57 256.81L232.63 256.73L232.68 256.66L232.72 256.59L232.76 256.53L232.78 256.48L232.79 256.44L232.8 256.4L232.79 256.37L232.78 256.32L232.75 256.27L232.72 256.22L232.67 256.16L232.61 256.09L232.55 256.02L232.48 255.94L232.39 255.85L232.3 255.76L232.2 255.66L232.09 255.56L231.98 255.46L231.85 255.35L231.72 255.23L231.58 255.11L231.43 254.99L231.28 254.86L231.11 254.73L230.94 254.59L230.77 254.45L230.59 254.31L230.4 254.16L230.2 254.01L230 253.86L229.79 253.7L229.58 253.54L229.37 253.38L229.14 253.22L228.92 253.05L228.68 252.89L228.45 252.72L228.2 252.54L227.96 252.37L227.71 252.2L227.46 252.02L227.2 251.85L226.94 251.67L226.68 251.49L226.41 251.31L220.13 246.98L218.83 233.12L218.72 231.85L218.6 230.59L218.49 229.35L218.38 228.12L218.27 226.91L218.15 225.71L218.04 224.52L217.93 223.35L217.82 222.19L217.71 221.05L217.6 219.91L217.48 218.79L217.37 217.68L217.26 216.58L217.15 215.49L217.04 214.41L216.92 213.34L216.81 212.28L216.7 211.23L216.58 210.18L216.47 209.14L216.36 208.11L216.24 207.09L216.12 206.07L216.01 205.06L215.89 204.05L215.78 203.05L215.66 202.05L215.54 201.06L215.42 200.07L215.3 199.08L215.18 198.09L215.06 197.11L214.93 196.13L214.81 195.15L214.68 194.17L214.56 193.19L214.43 192.21L214.3 191.23L214.17 190.24L214.09 189.66L214.02 189.01L213.94 188.28L213.87 187.49L213.81 186.62L213.74 185.67L213.68 184.65L213.62 183.55L213.57 182.37L213.52 181.1L213.47 179.75L213.42 178.31L213.37 176.79L213.33 175.17L213.29 173.46L213.26 171.66L213.22 169.76L213.19 167.77L213.16 165.67L213.13 163.47L213.11 161.17L213.08 158.76L213.06 156.25L213.04 153.63L213.03 150.89L213.01 148.05L213 145.08L212.99 142L212.98 138.81L212.97 135.49L212.97 132.05L212.96 128.49L212.96 124.8L212.96 120.98L212.96 117.03L212.96 112.95L212.96 108.74L212.97 104.39L212.98 99.91L212.98 95.28L212.99 92.95L213 90.62L213 88.29L213.01 85.96L213.02 83.64L213.03 81.33L213.04 79.02L213.06 76.71L213.07 74.41L213.08 72.11L213.1 69.81L213.12 67.52L213.13 65.23L213.15 62.95L213.17 60.67L213.19 58.4L213.21 56.13L213.23 53.87L213.26 51.6L213.28 49.35L213.31 47.09L213.33 44.85L213.36 42.6L213.39 40.36L213.41 38.13L213.44 35.89L213.47 33.67L213.51 31.44L213.54 29.22L213.57 27.01L213.61 24.8L213.64 22.59L213.68 20.39L213.71 18.19L213.75 16L213.79 13.81L213.83 11.62L213.87 9.44L213.91 7.26L213.96 5.09L214.61 0L445.78 0L446.54 15.38L446.64 17.99ZM235.33 13L235.08 13L234.83 13.01L234.59 13.01L234.35 13.02L234.11 13.03L233.87 13.04L233.64 13.05L233.41 13.07L233.18 13.08L232.96 13.1L232.74 13.12L232.53 13.13L232.32 13.15L232.11 13.17L231.91 13.19L231.71 13.22L231.52 13.24L231.34 13.26L231.16 13.29L230.98 13.31L230.81 13.34L230.65 13.37L230.5 13.4L230.35 13.42L230.21 13.45L230.08 13.48L229.95 13.51L229.83 13.54L229.72 13.57L229.62 13.6L229.52 13.63L229.44 13.67L229.36 13.7L229.29 13.73L229.23 13.76L229.19 13.79L229.15 13.83L229.12 13.86L229.03 14.03L228.94 14.24L228.86 14.51L228.77 14.82L228.69 15.18L228.61 15.6L228.54 16.07L228.46 16.59L228.38 17.17L228.31 17.81L228.24 18.5L228.17 19.26L228.1 20.08L228.03 20.96L227.96 21.9L227.89 22.92L227.82 24L227.76 25.14L227.69 26.36L227.63 27.65L227.56 29.01L227.5 30.45L227.43 31.96L227.37 33.55L227.31 35.22L227.24 36.97L227.18 38.8L227.11 40.71L227.05 42.7L226.98 44.78L226.92 46.95L226.85 49.21L226.79 51.55L226.72 53.99L226.65 56.52L226.58 59.14L226.52 61.86L226.45 64.67L226.37 67.59L226.3 70.6L226.23 73.75L226.17 76.9L226.11 80.05L226.06 83.2L226.02 86.34L225.98 89.48L225.95 92.62L225.92 95.75L225.9 98.87L225.89 101.98L225.89 105.09L225.89 108.18L225.89 111.27L225.91 114.34L225.92 117.4L225.95 120.44L225.98 123.47L226.02 126.49L226.06 129.49L226.11 132.46L226.17 135.43L226.23 138.37L226.3 141.29L226.37 144.18L226.45 147.06L226.54 149.91L226.63 152.74L226.73 155.54L226.83 158.31L226.94 161.06L227.06 163.78L227.18 166.46L227.31 169.12L227.44 171.75L227.58 174.34L227.72 176.9L227.87 179.42L228.03 181.91L228.19 184.37L228.36 186.78L228.52 189L228.68 191.18L228.83 193.3L228.99 195.38L229.13 197.4L229.28 199.37L229.42 201.3L229.57 203.17L229.7 204.99L229.84 206.76L229.97 208.48L230.1 210.15L230.22 211.77L230.34 213.33L230.46 214.85L230.58 216.31L230.69 217.72L230.8 219.08L230.91 220.39L231.01 221.65L231.11 222.85L231.21 224L231.3 225.1L231.39 226.15L231.48 227.15L231.56 228.09L231.64 228.98L231.72 229.82L231.79 230.6L231.86 231.33L231.93 232.01L231.99 232.64L232.05 233.21L232.1 233.73L232.16 234.2L232.21 234.61L232.25 234.97L232.29 235.27L232.33 235.52L232.36 235.72L232.42 235.94L232.52 236.17L232.65 236.42L232.81 236.69L233.01 236.98L233.23 237.28L233.48 237.59L233.76 237.92L234.06 238.26L234.38 238.61L234.72 238.96L235.09 239.32L235.47 239.69L235.87 240.06L236.28 240.44L236.7 240.82L237.14 241.19L237.59 241.57L238.04 241.94L238.5 242.31L238.96 242.68L239.42 243.04L239.89 243.39L240.36 243.73L240.82 244.06L241.28 244.38L241.73 244.68L242.18 244.98L242.61 245.25L243.04 245.51L243.45 245.75L243.85 245.97L244.23 246.17L244.6 246.35L244.95 246.51L245.27 246.63L245.58 246.74L245.85 246.81L246.11 246.86L246.33 246.87L246.41 246.87L246.5 246.86L246.6 246.84L246.72 246.82L246.84 246.79L246.97 246.75L247.12 246.7L247.27 246.65L247.43 246.6L247.6 246.53L247.78 246.46L247.97 246.39L248.17 246.31L248.38 246.22L248.59 246.13L248.81 246.04L249.04 245.93L249.27 245.83L249.51 245.72L249.76 245.6L250.01 245.48L250.27 245.36L250.53 245.23L250.8 245.1L251.07 244.96L251.35 244.82L251.63 244.68L251.92 244.53L252.21 244.38L252.5 244.22L252.79 244.07L253.09 243.91L253.39 243.75L253.7 243.58L254 243.41L254.31 243.24L254.61 243.07L254.92 242.9L255.23 242.72L255.54 242.54L255.85 242.37L256.15 242.19L256.46 242.02L256.77 241.84L257.08 241.67L257.38 241.51L257.69 241.34L257.99 241.18L258.29 241.02L258.59 240.86L258.89 240.71L259.18 240.56L259.47 240.41L259.76 240.27L260.04 240.13L260.32 239.99L260.59 239.86L260.86 239.73L261.12 239.6L261.38 239.48L261.64 239.37L261.88 239.26L262.12 239.15L262.36 239.05L262.59 238.95L262.81 238.86L263.02 238.78L263.22 238.7L263.42 238.62L263.61 238.55L263.79 238.49L263.96 238.43L264.12 238.38L264.27 238.34L264.41 238.3L264.54 238.27L264.66 238.24L264.77 238.23L264.87 238.22L264.96 238.21L265.05 238.21L265.15 238.22L265.28 238.23L265.42 238.26L265.58 238.29L265.75 238.34L265.94 238.39L266.14 238.45L266.36 238.53L266.59 238.6L266.84 238.69L267.1 238.79L267.37 238.89L267.65 239L267.95 239.12L268.26 239.24L268.58 239.37L268.91 239.51L269.25 239.66L269.6 239.81L269.96 239.97L270.33 240.13L270.71 240.3L271.09 240.47L271.49 240.65L271.89 240.84L272.3 241.03L272.71 241.22L273.13 241.42L273.56 241.62L273.99 241.83L274.43 242.04L274.87 242.26L275.32 242.47L275.77 242.69L276.22 242.92L276.68 243.15L277.14 243.38L277.6 243.61L278.06 243.84L289.1 249.58L300.36 243.63L311.73 237.67L330.14 250.23L340.75 244.93L341.63 244.49L342.45 244.08L343.23 243.68L343.96 243.32L344.65 242.97L345.3 242.64L345.92 242.34L346.5 242.06L347.06 241.81L347.59 241.58L348.09 241.37L348.57 241.18L349.04 241.02L349.49 240.88L349.93 240.76L350.36 240.67L350.79 240.6L351.21 240.56L351.64 240.54L352.07 240.54L352.5 240.57L352.94 240.62L353.4 240.7L353.87 240.8L354.36 240.93L354.87 241.08L355.41 241.26L355.97 241.46L356.57 241.69L357.2 241.94L357.86 242.22L358.56 242.52L359.31 242.85L360.1 243.21L360.94 243.59L361.84 244L362.78 244.44L363.79 244.9L364.85 245.39L365.98 245.9L373.13 249.15L381.9 243.19L390.78 237.35L395.65 238.86L395.85 238.93L396.07 239L396.29 239.07L396.51 239.14L396.74 239.21L396.98 239.28L397.22 239.36L397.47 239.44L397.72 239.52L397.97 239.6L398.23 239.68L398.49 239.76L398.75 239.84L399.02 239.92L399.29 240.01L399.56 240.09L399.83 240.18L400.11 240.26L400.38 240.35L400.66 240.43L400.93 240.52L401.21 240.6L401.48 240.69L401.76 240.77L402.04 240.86L402.31 240.94L402.58 241.02L402.85 241.11L403.12 241.19L403.38 241.27L403.65 241.35L403.91 241.43L404.16 241.5L404.41 241.58L404.66 241.65L404.9 241.73L405.14 241.8L405.38 241.87L405.6 241.94L405.83 242L406.04 242.07L406.25 242.13L406.47 242.19L406.69 242.26L406.91 242.32L407.14 242.38L407.36 242.44L407.58 242.5L407.81 242.56L408.04 242.62L408.26 242.68L408.49 242.73L408.71 242.79L408.94 242.84L409.16 242.9L409.39 242.95L409.61 243L409.83 243.05L410.05 243.09L410.27 243.14L410.48 243.18L410.69 243.22L410.9 243.26L411.1 243.3L411.31 243.34L411.5 243.38L411.7 243.41L411.89 243.44L412.07 243.47L412.25 243.49L412.43 243.52L412.6 243.54L412.76 243.56L412.92 243.58L413.07 243.59L413.22 243.6L413.36 243.61L413.49 243.62L413.61 243.62L413.73 243.63L413.96 243.62L414.22 243.59L414.51 243.55L414.82 243.49L415.14 243.42L415.49 243.34L415.86 243.24L416.25 243.13L416.65 243.01L417.06 242.87L417.49 242.73L417.93 242.57L418.38 242.41L418.83 242.24L419.29 242.06L419.76 241.88L420.23 241.68L420.7 241.49L421.17 241.29L421.64 241.08L422.1 240.87L422.56 240.66L423.01 240.45L423.46 240.23L423.9 240.02L424.32 239.81L424.73 239.59L425.13 239.38L425.52 239.17L425.88 238.97L426.23 238.76L426.55 238.57L426.86 238.37L427.14 238.19L427.39 238.01L427.62 237.84L427.82 237.67L427.99 237.52L428.13 237.37L428.24 237.24L428.27 237.18L428.29 237.09L428.33 236.98L428.36 236.84L428.4 236.69L428.43 236.5L428.48 236.3L428.52 236.08L428.56 235.83L428.61 235.56L428.66 235.28L428.71 234.97L428.76 234.64L428.82 234.3L428.87 233.94L428.93 233.56L428.99 233.16L429.05 232.75L429.11 232.32L429.17 231.88L429.24 231.42L429.3 230.95L429.37 230.46L429.43 229.96L429.5 229.45L429.57 228.93L429.63 228.4L429.7 227.85L429.77 227.3L429.84 226.73L429.91 226.16L429.98 225.57L430.04 224.98L430.11 224.39L430.18 223.78L430.25 223.17L430.32 222.55L430.38 221.93L430.45 221.3L430.51 220.67L430.58 220.03L430.65 219.37L430.71 218.71L430.78 218.04L430.85 217.37L430.92 216.7L430.99 216.02L431.06 215.33L431.14 214.65L431.21 213.96L431.28 213.27L431.35 212.58L431.43 211.9L431.5 211.21L431.57 210.53L431.65 209.85L431.72 209.17L431.79 208.5L431.86 207.84L431.94 207.18L432.01 206.52L432.08 205.88L432.15 205.24L432.21 204.62L432.28 204L432.35 203.4L432.41 202.81L432.48 202.22L432.54 201.66L432.6 201.1L432.66 200.57L432.72 200.04L432.77 199.54L432.83 199.05L432.88 198.58L432.93 198.13L432.98 197.7L433.03 197.28L433.07 196.89L433.11 196.52L433.19 195.8L433.27 194.89L433.36 193.81L433.45 192.56L433.55 191.16L433.65 189.62L433.76 187.94L433.87 186.14L433.98 184.22L434.1 182.19L434.22 180.06L434.34 177.84L434.46 175.54L434.58 173.17L434.71 170.74L434.83 168.26L434.95 165.74L435.08 163.18L435.2 160.59L435.32 157.99L435.44 155.38L435.55 152.78L435.67 150.19L435.78 147.62L435.89 145.08L435.99 142.58L436.09 140.13L436.18 137.74L436.27 135.41L436.36 133.17L436.43 131.01L436.5 128.94L436.57 126.98L436.63 125.13L436.68 123.4L436.72 121.81L436.75 120.36L436.77 119.05L436.79 117.91L436.79 116.94L436.79 116.51L436.79 116.04L436.78 115.52L436.77 114.96L436.76 114.35L436.74 113.69L436.72 112.98L436.69 112.21L436.66 111.37L436.63 110.48L436.59 109.51L436.55 108.48L436.51 107.37L436.46 106.18L436.4 104.92L436.34 103.57L436.28 102.14L436.21 100.62L436.13 99.01L436.05 97.3L435.96 95.5L435.87 93.59L435.77 91.58L435.67 89.46L435.56 87.23L435.45 84.89L435.33 82.43L435.2 79.85L435.06 77.15L434.92 74.32L434.77 71.36L434.62 68.28L434.46 65.05L434.29 61.69L434.11 58.19L433.93 54.54L433.73 50.74L433.54 46.8L433.33 42.7L433.11 38.44L433.06 37.55L433.01 36.67L432.96 35.79L432.91 34.93L432.86 34.07L432.81 33.23L432.75 32.4L432.7 31.57L432.65 30.77L432.59 29.97L432.54 29.19L432.48 28.42L432.43 27.67L432.37 26.94L432.32 26.22L432.26 25.52L432.21 24.84L432.15 24.18L432.1 23.54L432.04 22.91L431.99 22.31L431.93 21.74L431.88 21.18L431.83 20.65L431.77 20.14L431.72 19.66L431.67 19.2L431.62 18.77L431.56 18.37L431.51 17.99L431.46 17.64L431.41 17.32L431.37 17.04L431.32 16.78L431.27 16.55L431.23 16.36L431.18 16.2L431.14 16.07L431.1 15.98L431.06 15.92L430.94 15.88L430.66 15.83L430.23 15.79L429.66 15.75L428.94 15.7L428.07 15.65L427.07 15.61L425.93 15.56L424.66 15.51L423.25 15.46L421.72 15.41L420.07 15.36L418.29 15.31L416.4 15.26L414.39 15.21L412.27 15.15L410.04 15.1L407.71 15.05L405.27 15L402.74 14.94L400.11 14.89L397.39 14.84L394.58 14.78L391.68 14.73L388.7 14.68L385.63 14.63L382.49 14.58L379.28 14.53L376 14.47L372.65 14.42L369.23 14.38L365.75 14.33L362.22 14.28L358.63 14.23L354.98 14.18L351.29 14.14L347.55 14.09L343.77 14.05L339.95 14.01L336.1 13.97L332.23 13.94L328.39 13.9L324.58 13.87L320.8 13.84L317.06 13.81L313.37 13.77L309.72 13.74L306.12 13.71L302.56 13.68L299.07 13.65L295.63 13.62L292.25 13.59L288.93 13.56L285.69 13.53L282.51 13.5L279.41 13.47L276.39 13.44L273.44 13.41L270.58 13.39L267.81 13.36L265.13 13.33L262.55 13.31L260.06 13.28L257.67 13.26L255.38 13.24L253.21 13.21L251.14 13.19L249.19 13.17L247.35 13.15L245.63 13.13L244.04 13.11L242.58 13.09L241.24 13.08L240.04 13.06L238.98 13.05L238.06 13.04L237.28 13.02L236.64 13.01L236.16 13L235.83 12.99L235.58 12.99L235.33 13ZM291.29 201.6L291.49 201.64L291.71 201.7L291.96 201.77L292.23 201.86L292.53 201.96L292.85 202.07L293.2 202.2L293.58 202.33L293.98 202.48L294.4 202.64L294.87 202.8L295.39 202.98L295.95 203.16L296.55 203.35L297.19 203.55L297.87 203.75L298.58 203.96L299.32 204.17L300.09 204.39L300.89 204.61L301.71 204.84L302.55 205.07L303.42 205.3L304.3 205.53L305.2 205.77L306.12 206L307.04 206.23L307.98 206.47L308.92 206.7L309.86 206.93L310.81 207.16L311.76 207.38L312.71 207.61L313.65 207.82L314.59 208.04L315.52 208.25L316.43 208.45L317.34 208.65L318.23 208.84L319.1 209.02L319.95 209.19L320.78 209.36L321.59 209.52L322.13 209.63L322.66 209.74L323.18 209.83L323.69 209.93L324.18 210.01L324.66 210.1L325.13 210.17L325.59 210.24L326.04 210.3L326.48 210.36L326.92 210.41L327.34 210.46L327.76 210.5L328.17 210.53L328.58 210.56L328.98 210.58L329.38 210.6L329.78 210.61L330.17 210.62L330.56 210.62L330.95 210.61L331.34 210.6L331.73 210.59L332.11 210.57L332.51 210.54L332.9 210.51L333.29 210.47L333.69 210.43L334.1 210.38L334.51 210.32L334.92 210.27L335.34 210.2L335.77 210.13L336.2 210.06L336.96 209.92L337.73 209.78L338.5 209.64L339.28 209.49L340.06 209.33L340.85 209.17L341.65 209.01L342.45 208.84L343.25 208.67L344.06 208.49L344.86 208.31L345.67 208.13L346.49 207.94L347.3 207.75L348.11 207.56L348.93 207.36L349.74 207.16L350.55 206.96L351.36 206.76L352.17 206.55L352.97 206.34L353.77 206.13L354.57 205.91L355.37 205.7L356.15 205.48L356.94 205.26L357.71 205.04L358.49 204.82L359.25 204.59L360.01 204.37L360.76 204.14L361.5 203.91L362.23 203.68L362.95 203.45L363.27 203.36L363.59 203.27L363.91 203.18L364.22 203.09L364.53 203L364.83 202.92L365.13 202.83L365.43 202.75L365.71 202.68L366 202.6L366.27 202.53L366.54 202.46L366.8 202.39L367.05 202.33L367.3 202.27L367.54 202.21L367.77 202.16L367.99 202.1L368.2 202.06L368.4 202.01L368.59 201.97L368.77 201.94L368.94 201.9L369.1 201.88L369.24 201.85L369.38 201.83L369.5 201.81L369.61 201.8L369.71 201.8L369.79 201.79L369.86 201.8L369.92 201.8L369.96 201.81L369.99 201.83L370.01 201.9L369.96 202.03L369.85 202.2L369.68 202.41L369.45 202.67L369.17 202.96L368.84 203.29L368.46 203.65L368.04 204.05L367.58 204.46L367.09 204.91L366.56 205.37L366 205.85L365.42 206.35L364.82 206.85L364.19 207.37L363.56 207.89L362.91 208.42L362.26 208.95L361.6 209.47L360.94 209.99L360.28 210.5L359.63 211L358.99 211.49L358.37 211.96L357.76 212.41L357.18 212.83L356.62 213.23L356.08 213.6L355.58 213.94L355.11 214.25L354.69 214.52L354.3 214.75L353.96 214.93L353.6 215.12L353.22 215.32L352.83 215.51L352.43 215.7L352.01 215.89L351.57 216.08L351.12 216.28L350.67 216.47L350.19 216.66L349.71 216.85L349.21 217.04L348.71 217.23L348.19 217.42L347.66 217.6L347.12 217.79L346.57 217.97L346.02 218.15L345.45 218.33L344.88 218.51L344.3 218.69L343.71 218.86L343.11 219.04L342.51 219.21L341.9 219.38L341.28 219.54L340.66 219.7L340.04 219.86L339.41 220.02L338.77 220.17L338.13 220.32L337.49 220.47L336.85 220.61L336.2 220.75L335.55 220.89L335.11 220.98L334.68 221.07L334.27 221.15L333.87 221.22L333.47 221.29L333.09 221.36L332.72 221.41L332.35 221.47L331.99 221.51L331.63 221.55L331.28 221.58L330.92 221.61L330.58 221.63L330.23 221.64L329.87 221.65L329.52 221.65L329.17 221.65L328.8 221.63L328.44 221.61L328.07 221.59L327.68 221.55L327.29 221.51L326.89 221.46L326.48 221.41L326.06 221.35L325.62 221.28L325.17 221.2L324.7 221.12L324.21 221.03L323.7 220.93L323.18 220.82L322.63 220.71L322.07 220.58L321.48 220.45L320.51 220.23L319.55 219.99L318.6 219.75L317.67 219.49L316.74 219.22L315.83 218.94L314.92 218.66L314.03 218.36L313.15 218.05L312.28 217.73L311.42 217.39L310.58 217.05L309.74 216.7L308.92 216.34L308.11 215.97L307.31 215.58L306.52 215.19L305.75 214.79L304.98 214.37L304.23 213.95L303.5 213.51L302.77 213.07L302.06 212.61L301.36 212.14L300.67 211.67L299.99 211.18L299.33 210.68L298.68 210.18L298.04 209.66L297.42 209.13L296.81 208.59L296.21 208.05L295.63 207.49L295.06 206.92L294.58 206.42L294.12 205.94L293.7 205.5L293.3 205.08L292.93 204.69L292.59 204.32L292.28 203.98L291.99 203.66L291.73 203.37L291.5 203.11L291.3 202.86L291.13 202.64L290.98 202.44L290.86 202.26L290.77 202.11L290.7 201.97L290.66 201.86L290.65 201.76L290.66 201.69L290.7 201.63L290.77 201.59L290.86 201.57L290.98 201.56L291.12 201.57L291.29 201.6ZM391.7 130.41L392.97 130.76L394.21 131.23L395.41 131.81L396.56 132.51L397.67 133.32L398.71 134.23L399.69 135.25L400.59 136.37L401.41 137.6L402.15 138.92L402.55 139.82L402.88 140.72L403.15 141.61L403.35 142.5L403.48 143.38L403.55 144.26L403.56 145.14L403.49 146.01L403.36 146.88L403.17 147.74L402.91 148.6L402.58 149.46L402.18 150.31L401.72 151.16L401.2 152L400.61 152.84L399.95 153.68L399.22 154.51L398.48 155.26L397.69 155.94L396.86 156.56L395.99 157.11L395.09 157.6L394.16 158.02L393.2 158.38L392.22 158.67L391.22 158.88L390.21 159.03L389.19 159.12L388.15 159.12L387.12 159.06L386.08 158.93L385.05 158.72L384.02 158.44L383.01 158.08L382.01 157.65L381.29 157.27L380.57 156.81L379.88 156.28L379.19 155.69L378.53 155.05L377.89 154.35L377.28 153.61L376.7 152.83L376.16 152.02L375.66 151.19L375.2 150.34L374.79 149.48L374.43 148.61L374.13 147.75L373.88 146.9L373.71 146.05L373.6 145.24L373.56 144.44L373.59 143.73L373.69 142.99L373.84 142.24L374.06 141.48L374.32 140.71L374.64 139.94L375.01 139.18L375.42 138.41L375.87 137.66L376.37 136.93L376.9 136.21L377.46 135.52L378.05 134.85L378.67 134.22L379.31 133.62L379.98 133.07L380.66 132.56L381.36 132.1L382.6 131.43L383.87 130.89L385.17 130.49L386.47 130.22L387.79 130.08L389.1 130.07L390.41 130.18L391.7 130.41ZM275.37 130.52L276.84 131L278.26 131.61L279.61 132.36L280.86 133.25L282.02 134.25L283.05 135.37L283.94 136.59L284.69 137.91L285.27 139.32L285.66 140.81L285.85 142.39L285.92 143.44L285.96 144.41L285.98 145.31L285.98 146.13L285.95 146.89L285.89 147.6L285.8 148.26L285.67 148.89L285.52 149.48L285.32 150.04L285.09 150.59L284.81 151.14L284.49 151.68L284.13 152.22L283.72 152.78L283.25 153.36L282.74 153.97L282.17 154.62L281.62 155.22L281.11 155.76L280.64 156.23L280.19 156.66L279.76 157.02L279.34 157.34L278.92 157.62L278.49 157.85L278.04 158.05L277.58 158.2L277.07 158.33L276.53 158.43L275.93 158.51L275.27 158.56L274.55 158.59L273.75 158.61L272.87 158.62L271.89 158.63L270.97 158.62L270.14 158.61L269.37 158.58L268.68 158.54L268.04 158.49L267.46 158.41L266.92 158.32L266.41 158.2L265.94 158.06L265.5 157.89L265.07 157.7L264.66 157.47L264.25 157.22L263.84 156.92L263.42 156.6L262.98 156.23L262.52 155.83L262.03 155.38L261.39 154.71L260.78 154.02L260.22 153.29L259.71 152.54L259.24 151.76L258.82 150.97L258.44 150.16L258.11 149.33L257.84 148.49L257.61 147.64L257.43 146.79L257.31 145.93L257.24 145.07L257.22 144.22L257.26 143.37L257.35 142.52L257.5 141.69L257.7 140.87L257.9 140.17L258.12 139.51L258.34 138.88L258.58 138.29L258.84 137.73L259.12 137.19L259.42 136.68L259.74 136.2L260.08 135.73L260.46 135.27L260.87 134.83L261.3 134.41L261.78 133.98L262.29 133.57L262.84 133.15L263.43 132.73L264.06 132.31L264.74 131.88L266.18 131.14L267.67 130.59L269.2 130.22L270.75 130.05L272.3 130.04L273.85 130.2L275.37 130.52Z" id="b4APnxcPI9"></path></defs><g><g><g><use xlink:href="#b4APnxcPI9" opacity="1" fill="#fc1375" fill-opacity="1"></use><g><use xlink:href="#b4APnxcPI9" opacity="1" fill-opacity="0" stroke="#000000" stroke-width="1" stroke-opacity="0"></use></g></g></g></g></svg>